<svg xmlns="http://www.w3.org/2000/svg" viewBox="0 0 100 100">
  <path d="M50 50 m-35 0 a35 12 0 1 1 70 0 a35 12 0 1 1 -70 0" fill="none" stroke="#888" stroke-width="4"/>
  <path d="M50 50 m-28 5 a28 10 0 1 1 56 0 a28 10 0 1 1 -56 0" fill="none" stroke="#888" stroke-width="4"/>
  <path d="M50 50 m-21 10 a21 8 0 1 1 42 0 a21 8 0 1 1 -42 0" fill="none" stroke="#888" stroke-width="4"/>
  <path d="M50 50 m-14 15 a14 6 0 1 1 28 0 a14 6 0 1 1 -28 0" fill="none" stroke="#888" stroke-width="4"/>
</svg>
