<svg xmlns="http://www.w3.org/2000/svg" viewBox="0 0 100 100">
  <circle cx="50" cy="46" r="32" fill="none" stroke="#888" stroke-width="3"/>
  <circle cx="50" cy="46" r="5" fill="#666"/>
  <line x1="50" y1="46" x2="50" y2="14" stroke="#888" stroke-width="2"/>
  <line x1="50" y1="46" x2="50" y2="78" stroke="#888" stroke-width="2"/>
  <line x1="50" y1="46" x2="18" y2="46" stroke="#888" stroke-width="2"/>
  <line x1="50" y1="46" x2="82" y2="46" stroke="#888" stroke-width="2"/>
  <line x1="50" y1="46" x2="27" y2="23" stroke="#888" stroke-width="2"/>
  <line x1="50" y1="46" x2="73" y2="69" stroke="#888" stroke-width="2"/>
  <line x1="50" y1="46" x2="73" y2="23" stroke="#888" stroke-width="2"/>
  <line x1="50" y1="46" x2="27" y2="69" stroke="#888" stroke-width="2"/>
  <circle cx="50" cy="14" r="5" fill="#E44"/>
  <circle cx="50" cy="78" r="5" fill="#4A4"/>
  <circle cx="18" cy="46" r="5" fill="#44E"/>
  <circle cx="82" cy="46" r="5" fill="#E84"/>
  <circle cx="27" cy="23" r="5" fill="#A4E"/>
  <circle cx="73" cy="69" r="5" fill="#4EA"/>
  <circle cx="73" cy="23" r="5" fill="#EA4"/>
  <circle cx="27" cy="69" r="5" fill="#E4A"/>
  <line x1="50" y1="78" x2="50" y2="95" stroke="#666" stroke-width="3"/>
</svg>
